<svg xmlns="http://www.w3.org/2000/svg" xmlns:xlink="http://www.w3.org/1999/xlink" viewBox="0 0 300 10"><defs><style>.cls-1{fill:#fff;}.cls-2{fill:none;stroke:#000;stroke-miterlimit:10;}</style><symbol id="chain" data-name="chain" viewBox="0 0 300 10"><circle class="cls-1" cx="5" cy="5" r="4.5"/><path d="M5,1A4,4,0,1,1,1,5,4,4,0,0,1,5,1M5,0a5,5,0,1,0,5,5A5,5,0,0,0,5,0Z"/><line class="cls-2" x1="290" y1="4.5" x2="10" y2="4.5"/><circle class="cls-1" cx="295" cy="5" r="4.5"/><path d="M295,1a4,4,0,1,1-4,4,4,4,0,0,1,4-4m0-1a5,5,0,1,0,5,5,5,5,0,0,0-5-5Z"/></symbol></defs><title>Asset 1</title><g id="Layer_2" data-name="Layer 2"><g id="Layer_1-2" data-name="Layer 1"><use width="300" height="10" xlink:href="#chain"/></g></g></svg>