<svg xmlns="http://www.w3.org/2000/svg" viewBox="0 0 10 140"><defs><style>.cls-1{fill:#fff;}.cls-2{fill:none;stroke:#000;stroke-miterlimit:10;}</style></defs><title>Asset 3</title><g id="Layer_2" data-name="Layer 2"><g id="Layer_1-2" data-name="Layer 1"><g id="chain"><circle class="cls-1" cx="5" cy="135" r="4.5"/><path d="M5,131a4,4,0,1,1-4,4,4,4,0,0,1,4-4m0-1a5,5,0,1,0,5,5,5,5,0,0,0-5-5Z"/><line class="cls-2" x1="4.5" y1="10" x2="4.5" y2="130"/><circle class="cls-1" cx="5" cy="5" r="4.5"/><path d="M5,1A4,4,0,1,1,1,5,4,4,0,0,1,5,1M5,0a5,5,0,1,0,5,5A5,5,0,0,0,5,0Z"/></g></g></g></svg>