<?xml version="1.0" encoding="utf-8"?>
<!-- Generator: Adobe Illustrator 16.0.0, SVG Export Plug-In . SVG Version: 6.00 Build 0)  -->
<!DOCTYPE svg PUBLIC "-//W3C//DTD SVG 1.1//EN" "http://www.w3.org/Graphics/SVG/1.1/DTD/svg11.dtd">
<svg version="1.1" id="Layer_1" xmlns="http://www.w3.org/2000/svg" xmlns:xlink="http://www.w3.org/1999/xlink" x="0px" y="0px"
	 width="595.28px" height="184.252px" viewBox="0 0 595.28 184.252" enable-background="new 0 0 595.28 184.252"
	 xml:space="preserve">
<g>
	<g>
		<path fill="#3AC6F4" d="M49.434,28.953h20.398c4.469,0,8.283,0.684,11.432,2.051c3.148,1.371,5.729,3.197,7.736,5.479
			c2.006,2.282,3.441,4.907,4.312,7.869c0.865,2.969,1.299,6.051,1.299,9.243v3.559c0,2.65-0.207,4.883-0.615,6.709
			c-0.41,1.827-1.027,3.422-1.85,4.792c-0.818,1.368-1.826,2.58-3.01,3.629c-1.189,1.048-2.559,2.029-4.109,2.941
			c3.285,1.552,5.703,3.858,7.258,6.916c1.549,3.056,2.326,7.14,2.326,12.251v5.475c0,8.582-2.078,15.154-6.229,19.715
			c-4.154,4.564-10.793,6.848-19.922,6.848H49.434V28.953z M63.397,68.93h6.299c4.656,0,7.779-1.164,9.377-3.491
			c1.596-2.328,2.398-5.728,2.398-10.201c0-4.382-0.891-7.667-2.672-9.856c-1.781-2.191-4.998-3.285-9.65-3.285h-5.752V68.93z
			 M63.397,112.463h6.025c2.826,0,5.041-0.41,6.639-1.23c1.596-0.82,2.809-1.963,3.629-3.424c0.82-1.459,1.322-3.195,1.504-5.203
			c0.182-2.004,0.277-4.195,0.277-6.568c0-2.465-0.137-4.609-0.414-6.436c-0.273-1.824-0.846-3.355-1.711-4.586
			c-0.869-1.234-2.074-2.166-3.627-2.807c-1.553-0.64-3.609-0.957-6.16-0.957h-6.162V112.463z"/>
		<polygon fill="#3AC6F4" points="104.333,28.953 118.295,28.953 118.295,112.463 145.95,112.463 145.95,126.428 104.333,126.428 		
			"/>
		<path fill="#3AC6F4" d="M150.743,51.953c0-3.924,0.686-7.394,2.053-10.404c1.371-3.012,3.172-5.5,5.41-7.463
			c2.236-1.961,4.742-3.443,7.529-4.449c2.783-1.002,5.588-1.507,8.42-1.507c2.828,0,5.633,0.505,8.42,1.507
			c2.783,1.006,5.289,2.488,7.529,4.449c2.232,1.963,4.039,4.451,5.406,7.463c1.369,3.011,2.055,6.48,2.055,10.404v51.477
			c0,4.018-0.686,7.508-2.055,10.471c-1.367,2.969-3.174,5.434-5.406,7.393c-2.24,1.967-4.746,3.449-7.529,4.453
			c-2.787,1.002-5.592,1.504-8.42,1.504c-2.832,0-5.637-0.502-8.42-1.504c-2.787-1.004-5.293-2.486-7.529-4.453
			c-2.238-1.959-4.039-4.424-5.41-7.393c-1.367-2.963-2.053-6.453-2.053-10.471V51.953z M164.708,103.43
			c0,3.375,0.936,5.865,2.807,7.459c1.869,1.598,4.084,2.398,6.641,2.398c2.553,0,4.768-0.801,6.639-2.398
			c1.869-1.594,2.809-4.084,2.809-7.459V51.953c0-3.377-0.939-5.865-2.809-7.463c-1.871-1.596-4.086-2.395-6.639-2.395
			c-2.557,0-4.771,0.799-6.641,2.395c-1.871,1.598-2.807,4.086-2.807,7.463V103.43z"/>
		<path fill="#3AC6F4" d="M250.823,104.66c0,3.01-0.572,5.889-1.715,8.627s-2.717,5.131-4.723,7.186
			c-2.008,2.055-4.361,3.697-7.049,4.93c-2.695,1.232-5.594,1.846-8.693,1.846c-2.65,0-5.342-0.363-8.08-1.092
			c-2.738-0.73-5.201-1.986-7.393-3.766c-2.191-1.781-3.994-4.131-5.406-7.051c-1.416-2.92-2.125-6.617-2.125-11.09V50.582
			c0-3.193,0.551-6.158,1.645-8.896s2.646-5.111,4.656-7.12c2.006-2.005,4.402-3.582,7.186-4.722
			c2.783-1.143,5.865-1.715,9.24-1.715c3.197,0,6.164,0.572,8.9,1.715c2.738,1.14,5.111,2.737,7.119,4.789
			c2.006,2.053,3.58,4.518,4.723,7.393c1.143,2.878,1.715,6.005,1.715,9.381v5.475h-13.967v-4.654c0-2.738-0.777-5.111-2.326-7.121
			c-1.555-2.004-3.654-3.01-6.301-3.01c-3.467,0-5.773,1.072-6.912,3.217c-1.143,2.146-1.711,4.859-1.711,8.147v49.833
			c0,2.828,0.617,5.201,1.848,7.119c1.232,1.914,3.445,2.875,6.639,2.875c0.912,0,1.893-0.158,2.945-0.48
			c1.049-0.318,2.006-0.842,2.875-1.574c0.865-0.729,1.572-1.732,2.123-3.01c0.547-1.281,0.82-2.879,0.82-4.793v-4.791h13.967
			V104.66z"/>
		<polygon fill="#3AC6F4" points="258.762,28.953 272.723,28.953 272.723,73.448 272.999,73.448 293.399,28.953 307.361,28.953 
			288.334,67.969 310.922,126.428 296.137,126.428 280.254,83.168 272.723,97.266 272.723,126.428 258.762,126.428 		"/>
		<path fill="#FFFFFF" d="M358.018,104.66c0,3.01-0.572,5.889-1.713,8.627c-1.145,2.738-2.717,5.131-4.723,7.186
			c-2.01,2.055-4.361,3.697-7.051,4.93c-2.693,1.232-5.594,1.846-8.691,1.846c-2.65,0-5.344-0.363-8.08-1.092
			c-2.738-0.73-5.203-1.986-7.395-3.766c-2.189-1.781-3.992-4.131-5.404-7.051c-1.416-2.92-2.125-6.617-2.125-11.09V50.582
			c0-3.193,0.551-6.158,1.645-8.896s2.646-5.111,4.654-7.12c2.006-2.005,4.402-3.582,7.188-4.722
			c2.783-1.143,5.863-1.715,9.24-1.715c3.197,0,6.162,0.572,8.9,1.715c2.736,1.14,5.109,2.737,7.119,4.789
			c2.006,2.053,3.578,4.518,4.723,7.393c1.141,2.878,1.713,6.005,1.713,9.381v5.475h-13.965v-4.654c0-2.738-0.779-5.111-2.328-7.121
			c-1.553-2.004-3.652-3.01-6.299-3.01c-3.469,0-5.773,1.072-6.912,3.217c-1.145,2.146-1.711,4.859-1.711,8.147v49.833
			c0,2.828,0.617,5.201,1.846,7.119c1.234,1.914,3.447,2.875,6.641,2.875c0.91,0,1.893-0.158,2.943-0.48
			c1.049-0.318,2.006-0.842,2.875-1.574c0.867-0.729,1.574-1.732,2.125-3.01c0.547-1.281,0.82-2.879,0.82-4.793v-4.791h13.965
			V104.66z"/>
		<polygon fill="#FFFFFF" points="365.957,28.953 379.92,28.953 379.92,70.71 397.17,70.71 397.17,28.953 411.137,28.953 
			411.137,126.428 397.17,126.428 397.17,83.028 379.92,83.028 379.92,126.428 365.957,126.428 		"/>
		<path fill="#FFFFFF" d="M436.326,28.953h11.639l21.764,97.475h-13.961l-4.109-20.943h-19.031l-4.104,20.943h-13.967
			L436.326,28.953z M442.211,57.018h-0.273l-6.846,35.32h13.967L442.211,57.018z"/>
		<polygon fill="#FFFFFF" points="473.564,57.67 480.545,52.51 487.527,57.67 487.527,126.428 473.564,126.428 		"/>
		<polygon fill="#FFFFFF" points="497.107,28.953 510.525,28.953 531.607,87.684 531.881,87.684 531.881,28.953 545.846,28.953 
			545.846,126.428 532.705,126.428 511.346,67.832 511.072,67.832 511.072,126.428 497.107,126.428 		"/>
		<polygon fill="#3AC6F4" points="480.545,23.232 480.545,44.449 471.131,49.79 		"/>
		<polygon fill="#2C95C2" points="480.545,23.232 480.545,44.449 489.959,49.79 		"/>
	</g>
	<g>
		<path fill="#FFFFFF" d="M51.389,157.727v-16.102h5.135c0.989,0,1.842,0.098,2.557,0.291c0.715,0.195,1.304,0.473,1.764,0.832
			c0.461,0.359,0.803,0.799,1.023,1.32s0.331,1.107,0.331,1.758c0,0.398-0.062,0.779-0.185,1.146
			c-0.125,0.367-0.312,0.709-0.562,1.023s-0.566,0.596-0.943,0.842c-0.379,0.248-0.822,0.449-1.332,0.607
			c1.176,0.232,2.063,0.656,2.663,1.27c0.599,0.615,0.899,1.424,0.899,2.428c0,0.682-0.126,1.303-0.377,1.865
			s-0.618,1.045-1.102,1.449c-0.482,0.404-1.074,0.717-1.775,0.939c-0.7,0.221-1.5,0.33-2.398,0.33H51.389z M53.569,148.838h2.877
			c0.613,0,1.146-0.066,1.596-0.201s0.822-0.322,1.117-0.562c0.297-0.24,0.516-0.529,0.658-0.871
			c0.143-0.34,0.213-0.713,0.213-1.117c0-0.945-0.285-1.637-0.854-2.08c-0.569-0.441-1.453-0.662-2.652-0.662h-2.955V148.838z
			 M53.569,150.389v5.607h3.483c0.622,0,1.155-0.07,1.602-0.213c0.445-0.143,0.812-0.344,1.101-0.602
			c0.289-0.258,0.5-0.564,0.635-0.922c0.135-0.355,0.203-0.746,0.203-1.174c0-0.832-0.295-1.488-0.883-1.973
			c-0.588-0.482-1.477-0.725-2.668-0.725H53.569z"/>
		<path fill="#FFFFFF" d="M76.897,141.625v1.83h-5.203v14.271h-2.18v-14.271h-5.226v-1.83H76.897z"/>
		<path fill="#FFFFFF" d="M87.387,152.475c0.078,0.197,0.154,0.398,0.229,0.6c0.075-0.209,0.153-0.41,0.236-0.6
			c0.082-0.191,0.176-0.385,0.28-0.58l5.451-9.898c0.097-0.174,0.197-0.277,0.303-0.316c0.105-0.037,0.254-0.055,0.449-0.055h1.607
			v16.102h-1.91v-11.832c0-0.158,0.004-0.326,0.011-0.506s0.019-0.363,0.034-0.551l-5.518,10.068
			c-0.188,0.338-0.449,0.506-0.787,0.506h-0.314c-0.337,0-0.6-0.168-0.787-0.506l-5.641-10.102c0.023,0.195,0.039,0.385,0.051,0.572
			s0.018,0.359,0.018,0.518v11.832h-1.911v-16.102h1.606c0.195,0,0.346,0.018,0.45,0.055c0.104,0.039,0.206,0.143,0.304,0.316
			l5.562,9.91C87.216,152.086,87.308,152.275,87.387,152.475z"/>
		<path fill="#FFFFFF" d="M104.202,157.727v-16.102h5.137c0.988,0,1.84,0.098,2.556,0.291c0.716,0.195,1.304,0.473,1.765,0.832
			s0.801,0.799,1.021,1.32c0.222,0.521,0.332,1.107,0.332,1.758c0,0.398-0.062,0.779-0.186,1.146
			c-0.123,0.367-0.311,0.709-0.562,1.023s-0.565,0.596-0.944,0.842c-0.378,0.248-0.822,0.449-1.331,0.607
			c1.176,0.232,2.063,0.656,2.663,1.27c0.6,0.615,0.898,1.424,0.898,2.428c0,0.682-0.125,1.303-0.376,1.865
			s-0.618,1.045-1.101,1.449c-0.484,0.404-1.076,0.717-1.775,0.939c-0.701,0.221-1.501,0.33-2.4,0.33H104.202z M106.382,148.838
			h2.876c0.615,0,1.146-0.066,1.596-0.201c0.45-0.135,0.822-0.322,1.119-0.562c0.295-0.24,0.515-0.529,0.656-0.871
			c0.143-0.34,0.215-0.713,0.215-1.117c0-0.945-0.285-1.637-0.854-2.08c-0.569-0.441-1.454-0.662-2.651-0.662h-2.956V148.838z
			 M106.382,150.389v5.607h3.483c0.621,0,1.156-0.07,1.602-0.213s0.812-0.344,1.102-0.602c0.287-0.258,0.5-0.564,0.635-0.922
			c0.135-0.355,0.201-0.746,0.201-1.174c0-0.832-0.293-1.488-0.881-1.973c-0.589-0.482-1.479-0.725-2.67-0.725H106.382z"/>
		<path fill="#FFFFFF" d="M120.922,155.895h6.967v1.832h-9.146v-16.102h2.18V155.895z"/>
		<path fill="#FFFFFF" d="M144.352,149.682c0,1.205-0.191,2.312-0.572,3.32c-0.383,1.008-0.922,1.875-1.619,2.602
			c-0.696,0.727-1.533,1.291-2.512,1.691c-0.977,0.4-2.058,0.602-3.241,0.602c-1.185,0-2.263-0.201-3.236-0.602
			s-1.81-0.965-2.506-1.691s-1.236-1.594-1.618-2.602c-0.383-1.008-0.573-2.115-0.573-3.32c0-1.207,0.19-2.312,0.573-3.32
			c0.382-1.008,0.922-1.877,1.618-2.607s1.532-1.299,2.506-1.703s2.052-0.605,3.236-0.605c1.184,0,2.265,0.201,3.241,0.605
			c0.979,0.404,1.815,0.973,2.512,1.703c0.697,0.73,1.236,1.6,1.619,2.607C144.161,147.369,144.352,148.475,144.352,149.682z
			 M142.116,149.682c0-0.988-0.135-1.877-0.404-2.664c-0.27-0.785-0.652-1.451-1.146-1.994s-1.094-0.961-1.797-1.252
			c-0.705-0.293-1.492-0.439-2.36-0.439c-0.862,0-1.645,0.146-2.349,0.439c-0.704,0.291-1.306,0.709-1.804,1.252
			s-0.882,1.209-1.151,1.994c-0.27,0.787-0.404,1.676-0.404,2.664s0.135,1.875,0.404,2.658c0.27,0.781,0.653,1.445,1.151,1.988
			s1.1,0.959,1.804,1.246c0.704,0.289,1.486,0.434,2.349,0.434c0.868,0,1.655-0.145,2.36-0.434c0.703-0.287,1.303-0.703,1.797-1.246
			s0.877-1.207,1.146-1.988C141.981,151.557,142.116,150.67,142.116,149.682z"/>
		<path fill="#FFFFFF" d="M158.68,154.4c0.119,0,0.229,0.049,0.326,0.146l0.854,0.934c-0.66,0.764-1.459,1.359-2.398,1.785
			c-0.941,0.428-2.074,0.641-3.4,0.641c-1.16,0-2.213-0.199-3.158-0.602c-0.943-0.4-1.749-0.961-2.416-1.686
			c-0.666-0.723-1.184-1.59-1.551-2.6c-0.367-1.012-0.551-2.125-0.551-3.338c0-1.215,0.197-2.326,0.59-3.338
			c0.395-1.012,0.946-1.881,1.658-2.607c0.711-0.727,1.563-1.289,2.557-1.691c0.992-0.4,2.088-0.6,3.287-0.6
			c1.184,0,2.205,0.184,3.062,0.551c0.857,0.365,1.619,0.865,2.287,1.494l-0.709,1c-0.053,0.074-0.111,0.137-0.18,0.186
			c-0.066,0.049-0.164,0.072-0.293,0.072c-0.096,0-0.199-0.035-0.309-0.107c-0.107-0.07-0.238-0.158-0.387-0.264
			c-0.15-0.104-0.326-0.217-0.529-0.336c-0.201-0.121-0.441-0.232-0.719-0.338s-0.6-0.193-0.967-0.264
			c-0.367-0.072-0.789-0.107-1.27-0.107c-0.861,0-1.65,0.148-2.365,0.443c-0.715,0.297-1.332,0.719-1.849,1.266s-0.92,1.213-1.208,2
			c-0.289,0.787-0.433,1.666-0.433,2.641c0,1.004,0.144,1.898,0.433,2.686c0.288,0.787,0.682,1.451,1.18,1.994
			s1.088,0.957,1.77,1.242s1.416,0.426,2.203,0.426c0.48,0,0.91-0.027,1.293-0.084c0.381-0.055,0.736-0.143,1.061-0.264
			c0.326-0.119,0.631-0.271,0.912-0.455c0.279-0.184,0.562-0.402,0.848-0.656C158.436,154.457,158.559,154.4,158.68,154.4z"/>
		<path fill="#FFFFFF" d="M165.118,148.682h0.82c0.285,0,0.512-0.035,0.68-0.107c0.17-0.07,0.328-0.193,0.479-0.365l5.359-6.068
			c0.166-0.188,0.324-0.32,0.479-0.398c0.152-0.078,0.35-0.117,0.59-0.117h1.854l-6.135,6.932c-0.158,0.174-0.307,0.32-0.443,0.439
			c-0.139,0.119-0.287,0.217-0.445,0.291c0.211,0.068,0.395,0.17,0.551,0.305c0.158,0.135,0.322,0.303,0.494,0.506l6.406,7.629
			h-1.889c-0.143,0-0.262-0.012-0.359-0.033c-0.098-0.023-0.182-0.053-0.252-0.09c-0.072-0.037-0.137-0.086-0.197-0.146
			c-0.061-0.059-0.119-0.123-0.18-0.191l-5.562-6.393c-0.082-0.09-0.16-0.168-0.23-0.23c-0.07-0.064-0.154-0.119-0.248-0.164
			s-0.201-0.076-0.324-0.096c-0.125-0.018-0.275-0.027-0.455-0.027h-0.99v7.371h-2.168v-16.102h2.168V148.682z"/>
		<path fill="#FFFFFF" d="M189.042,154.4c0.121,0,0.229,0.049,0.326,0.146l0.854,0.934c-0.658,0.764-1.459,1.359-2.398,1.785
			c-0.939,0.428-2.072,0.641-3.398,0.641c-1.162,0-2.215-0.199-3.158-0.602c-0.943-0.4-1.75-0.961-2.416-1.686
			c-0.666-0.723-1.184-1.59-1.551-2.6c-0.367-1.012-0.551-2.125-0.551-3.338c0-1.215,0.197-2.326,0.59-3.338
			s0.945-1.881,1.658-2.607c0.711-0.727,1.562-1.289,2.557-1.691c0.992-0.4,2.088-0.6,3.285-0.6c1.184,0,2.205,0.184,3.062,0.551
			c0.857,0.365,1.621,0.865,2.287,1.494l-0.707,1c-0.053,0.074-0.113,0.137-0.18,0.186c-0.068,0.049-0.166,0.072-0.293,0.072
			c-0.098,0-0.201-0.035-0.309-0.107c-0.109-0.07-0.238-0.158-0.389-0.264c-0.148-0.104-0.326-0.217-0.527-0.336
			c-0.203-0.121-0.441-0.232-0.719-0.338s-0.6-0.193-0.967-0.264c-0.367-0.072-0.791-0.107-1.27-0.107
			c-0.861,0-1.65,0.148-2.365,0.443c-0.717,0.297-1.332,0.719-1.85,1.266c-0.516,0.547-0.92,1.213-1.207,2
			c-0.289,0.787-0.434,1.666-0.434,2.641c0,1.004,0.145,1.898,0.434,2.686c0.287,0.787,0.682,1.451,1.18,1.994
			s1.088,0.957,1.77,1.242s1.416,0.426,2.203,0.426c0.479,0,0.91-0.027,1.291-0.084c0.383-0.055,0.736-0.143,1.062-0.264
			c0.326-0.119,0.629-0.271,0.91-0.455s0.564-0.402,0.848-0.656C188.799,154.457,188.922,154.4,189.042,154.4z"/>
		<path fill="#FFFFFF" d="M206.145,157.727h-2.191V150.4h-8.676v7.326h-2.191v-16.102h2.191v7.18h8.676v-7.18h2.191V157.727z"/>
		<path fill="#FFFFFF" d="M223.327,157.727h-1.686c-0.195,0-0.354-0.049-0.473-0.146c-0.119-0.096-0.211-0.221-0.27-0.369
			l-1.506-3.889h-7.227l-1.504,3.889c-0.053,0.135-0.143,0.254-0.271,0.359c-0.127,0.104-0.283,0.156-0.471,0.156h-1.686
			l6.438-16.102h2.215L223.327,157.727z M212.774,151.748h6.012l-2.527-6.551c-0.166-0.404-0.326-0.91-0.484-1.516
			c-0.082,0.307-0.162,0.59-0.24,0.848c-0.08,0.258-0.156,0.484-0.23,0.68L212.774,151.748z"/>
		<path fill="#FFFFFF" d="M227.944,157.727h-2.18v-16.102h2.18V157.727z"/>
		<path fill="#FFFFFF" d="M233.815,141.697c0.094,0.049,0.201,0.148,0.32,0.299l9.326,12.135c-0.021-0.195-0.037-0.383-0.045-0.566
			c-0.006-0.184-0.01-0.361-0.01-0.535v-11.404h1.91v16.102h-1.102c-0.172,0-0.316-0.029-0.434-0.09
			c-0.115-0.059-0.23-0.16-0.342-0.303l-9.316-12.125c0.016,0.188,0.027,0.371,0.035,0.551c0.006,0.18,0.01,0.344,0.01,0.494v11.473
			h-1.91v-16.102h1.125C233.577,141.625,233.721,141.648,233.815,141.697z"/>
		<path fill="#FFFFFF" d="M264.553,141.625v1.83h-5.203v14.271h-2.18v-14.271h-5.225v-1.83H264.553z"/>
		<path fill="#FFFFFF" d="M276.768,141.625v1.775h-7.73v5.348h6.258v1.709h-6.258v5.494h7.73v1.775h-9.922v-16.102H276.768z"/>
		<path fill="#FFFFFF" d="M291.252,154.4c0.121,0,0.229,0.049,0.326,0.146l0.854,0.934c-0.658,0.764-1.459,1.359-2.398,1.785
			c-0.939,0.428-2.072,0.641-3.398,0.641c-1.162,0-2.215-0.199-3.158-0.602c-0.943-0.4-1.75-0.961-2.416-1.686
			c-0.666-0.723-1.184-1.59-1.551-2.6c-0.367-1.012-0.551-2.125-0.551-3.338c0-1.215,0.197-2.326,0.59-3.338
			s0.945-1.881,1.658-2.607c0.711-0.727,1.562-1.289,2.557-1.691c0.992-0.4,2.088-0.6,3.285-0.6c1.184,0,2.205,0.184,3.062,0.551
			c0.857,0.365,1.621,0.865,2.287,1.494l-0.707,1c-0.053,0.074-0.113,0.137-0.18,0.186c-0.068,0.049-0.166,0.072-0.293,0.072
			c-0.098,0-0.201-0.035-0.309-0.107c-0.109-0.07-0.238-0.158-0.389-0.264c-0.148-0.104-0.326-0.217-0.527-0.336
			c-0.203-0.121-0.441-0.232-0.719-0.338s-0.6-0.193-0.967-0.264c-0.367-0.072-0.791-0.107-1.27-0.107
			c-0.861,0-1.65,0.148-2.365,0.443c-0.717,0.297-1.332,0.719-1.85,1.266c-0.516,0.547-0.92,1.213-1.207,2
			c-0.289,0.787-0.434,1.666-0.434,2.641c0,1.004,0.145,1.898,0.434,2.686c0.287,0.787,0.682,1.451,1.18,1.994
			s1.088,0.957,1.77,1.242s1.416,0.426,2.203,0.426c0.479,0,0.91-0.027,1.291-0.084c0.383-0.055,0.736-0.143,1.062-0.264
			c0.326-0.119,0.629-0.271,0.91-0.455s0.564-0.402,0.848-0.656C291.01,154.457,291.133,154.4,291.252,154.4z"/>
		<path fill="#FFFFFF" d="M308.355,157.727h-2.191V150.4h-8.675v7.326h-2.191v-16.102h2.191v7.18h8.675v-7.18h2.191V157.727z"/>
		<path fill="#FFFFFF" d="M313.844,141.697c0.094,0.049,0.201,0.148,0.32,0.299l9.326,12.135c-0.021-0.195-0.037-0.383-0.045-0.566
			c-0.006-0.184-0.01-0.361-0.01-0.535v-11.404h1.91v16.102h-1.102c-0.172,0-0.316-0.029-0.434-0.09
			c-0.115-0.059-0.23-0.16-0.342-0.303l-9.316-12.125c0.016,0.188,0.027,0.371,0.035,0.551c0.006,0.18,0.01,0.344,0.01,0.494v11.473
			h-1.91v-16.102h1.125C313.605,141.625,313.75,141.648,313.844,141.697z"/>
		<path fill="#FFFFFF" d="M344.236,149.682c0,1.205-0.191,2.312-0.574,3.32c-0.381,1.008-0.922,1.875-1.617,2.602
			c-0.697,0.727-1.535,1.291-2.512,1.691c-0.979,0.4-2.059,0.602-3.242,0.602s-2.262-0.201-3.236-0.602s-1.809-0.965-2.506-1.691
			s-1.236-1.594-1.619-2.602c-0.381-1.008-0.572-2.115-0.572-3.32c0-1.207,0.191-2.312,0.572-3.32
			c0.383-1.008,0.922-1.877,1.619-2.607s1.531-1.299,2.506-1.703s2.053-0.605,3.236-0.605s2.264,0.201,3.242,0.605
			c0.977,0.404,1.814,0.973,2.512,1.703c0.695,0.73,1.236,1.6,1.617,2.607C344.045,147.369,344.236,148.475,344.236,149.682z
			 M342,149.682c0-0.988-0.135-1.877-0.404-2.664c-0.271-0.785-0.652-1.451-1.146-1.994s-1.094-0.961-1.799-1.252
			c-0.703-0.293-1.49-0.439-2.359-0.439c-0.861,0-1.645,0.146-2.35,0.439c-0.703,0.291-1.305,0.709-1.803,1.252
			s-0.883,1.209-1.152,1.994c-0.27,0.787-0.404,1.676-0.404,2.664s0.135,1.875,0.404,2.658c0.27,0.781,0.654,1.445,1.152,1.988
			s1.1,0.959,1.803,1.246c0.705,0.289,1.488,0.434,2.35,0.434c0.869,0,1.656-0.145,2.359-0.434c0.705-0.287,1.305-0.703,1.799-1.246
			s0.875-1.207,1.146-1.988C341.865,151.557,342,150.67,342,149.682z"/>
		<path fill="#FFFFFF" d="M349.393,155.895h6.967v1.832h-9.146v-16.102h2.18V155.895z"/>
		<path fill="#FFFFFF" d="M372.822,149.682c0,1.205-0.191,2.312-0.574,3.32c-0.381,1.008-0.922,1.875-1.617,2.602
			c-0.697,0.727-1.535,1.291-2.512,1.691c-0.979,0.4-2.059,0.602-3.242,0.602s-2.262-0.201-3.236-0.602s-1.809-0.965-2.506-1.691
			s-1.236-1.594-1.619-2.602c-0.381-1.008-0.572-2.115-0.572-3.32c0-1.207,0.191-2.312,0.572-3.32
			c0.383-1.008,0.922-1.877,1.619-2.607s1.531-1.299,2.506-1.703s2.053-0.605,3.236-0.605s2.264,0.201,3.242,0.605
			c0.977,0.404,1.814,0.973,2.512,1.703c0.695,0.73,1.236,1.6,1.617,2.607C372.631,147.369,372.822,148.475,372.822,149.682z
			 M370.586,149.682c0-0.988-0.135-1.877-0.404-2.664c-0.271-0.785-0.652-1.451-1.146-1.994s-1.094-0.961-1.799-1.252
			c-0.703-0.293-1.49-0.439-2.359-0.439c-0.861,0-1.645,0.146-2.35,0.439c-0.703,0.291-1.305,0.709-1.803,1.252
			s-0.883,1.209-1.152,1.994c-0.27,0.787-0.404,1.676-0.404,2.664s0.135,1.875,0.404,2.658c0.27,0.781,0.654,1.445,1.152,1.988
			s1.1,0.959,1.803,1.246c0.705,0.289,1.488,0.434,2.35,0.434c0.869,0,1.656-0.145,2.359-0.434c0.705-0.287,1.305-0.703,1.799-1.246
			s0.875-1.207,1.146-1.988C370.451,151.557,370.586,150.67,370.586,149.682z"/>
		<path fill="#FFFFFF" d="M382.98,156.143c0.434,0,0.832-0.02,1.195-0.062c0.363-0.041,0.707-0.102,1.029-0.186
			c0.322-0.082,0.625-0.182,0.91-0.297s0.568-0.248,0.854-0.398v-3.551h-2.494c-0.143,0-0.256-0.041-0.344-0.125
			c-0.086-0.082-0.129-0.184-0.129-0.303v-1.236h4.945v6.182c-0.404,0.291-0.826,0.547-1.264,0.764
			c-0.439,0.217-0.908,0.398-1.406,0.545s-1.031,0.254-1.6,0.326c-0.57,0.07-1.188,0.105-1.855,0.105
			c-1.168,0-2.24-0.199-3.213-0.602c-0.975-0.4-1.814-0.961-2.518-1.686c-0.705-0.723-1.254-1.59-1.646-2.6
			c-0.393-1.012-0.59-2.125-0.59-3.338c0-1.229,0.193-2.35,0.578-3.359c0.387-1.012,0.938-1.879,1.652-2.602s1.58-1.283,2.596-1.68
			c1.016-0.398,2.152-0.596,3.41-0.596c0.637,0,1.229,0.047,1.775,0.141s1.055,0.229,1.523,0.404s0.9,0.389,1.297,0.641
			c0.398,0.25,0.77,0.533,1.113,0.848l-0.617,0.988c-0.129,0.203-0.293,0.305-0.496,0.305c-0.119,0-0.25-0.041-0.393-0.125
			c-0.188-0.104-0.396-0.232-0.629-0.381c-0.232-0.15-0.516-0.295-0.85-0.434c-0.332-0.139-0.727-0.256-1.18-0.354
			s-0.99-0.146-1.611-0.146c-0.906,0-1.727,0.148-2.461,0.443c-0.734,0.297-1.359,0.721-1.877,1.271
			c-0.518,0.549-0.914,1.217-1.191,2s-0.416,1.66-0.416,2.635c0,1.02,0.145,1.928,0.434,2.725c0.287,0.799,0.693,1.475,1.219,2.029
			c0.523,0.553,1.146,0.977,1.865,1.27C381.316,155.996,382.111,156.143,382.98,156.143z"/>
		<path fill="#FFFFFF" d="M398.498,151.322v6.404h-2.168v-6.404l-5.9-9.697h1.91c0.195,0,0.35,0.049,0.461,0.145
			c0.113,0.098,0.211,0.219,0.293,0.361l3.686,6.258c0.15,0.264,0.275,0.51,0.377,0.742c0.1,0.232,0.191,0.461,0.275,0.686
			c0.082-0.232,0.172-0.465,0.27-0.697s0.221-0.475,0.371-0.73l3.674-6.258c0.066-0.121,0.158-0.234,0.275-0.344
			c0.115-0.107,0.268-0.162,0.455-0.162h1.932L398.498,151.322z"/>
		<path fill="#FFFFFF" d="M412.061,150.658c0,1.604,0.207,3.16,0.619,4.67s1.008,2.949,1.787,4.32
			c0.045,0.082,0.074,0.154,0.09,0.213c0.014,0.061,0.021,0.121,0.021,0.18c0,0.105-0.025,0.191-0.078,0.26
			c-0.053,0.066-0.119,0.127-0.203,0.18l-0.887,0.539c-0.562-0.861-1.039-1.715-1.434-2.562c-0.393-0.846-0.711-1.697-0.955-2.551
			c-0.242-0.854-0.42-1.713-0.533-2.578s-0.168-1.756-0.168-2.67c0-0.906,0.055-1.793,0.168-2.662s0.291-1.729,0.533-2.58
			c0.244-0.85,0.562-1.697,0.955-2.545c0.395-0.846,0.871-1.703,1.434-2.572l0.887,0.551c0.084,0.053,0.15,0.111,0.203,0.18
			c0.053,0.066,0.078,0.152,0.078,0.258c0,0.113-0.037,0.24-0.111,0.383c-0.787,1.363-1.385,2.801-1.793,4.314
			S412.061,149.057,412.061,150.658z"/>
		<path fill="#FFFFFF" d="M425.707,152.475c0.08,0.197,0.156,0.398,0.23,0.6c0.076-0.209,0.154-0.41,0.236-0.6
			c0.082-0.191,0.176-0.385,0.281-0.58l5.449-9.898c0.098-0.174,0.199-0.277,0.305-0.316c0.104-0.037,0.254-0.055,0.449-0.055h1.607
			v16.102h-1.91v-11.832c0-0.158,0.002-0.326,0.01-0.506s0.02-0.363,0.035-0.551l-5.518,10.068
			c-0.188,0.338-0.449,0.506-0.787,0.506h-0.314c-0.338,0-0.6-0.168-0.787-0.506l-5.641-10.102c0.021,0.195,0.039,0.385,0.051,0.572
			s0.016,0.359,0.016,0.518v11.832h-1.91v-16.102h1.607c0.195,0,0.344,0.018,0.449,0.055c0.105,0.039,0.207,0.143,0.305,0.316
			l5.561,9.91C425.537,152.086,425.629,152.275,425.707,152.475z"/>
		<path fill="#FFFFFF" d="M439.58,150.658c0-1.602-0.203-3.16-0.611-4.674s-1.006-2.951-1.793-4.314
			c-0.074-0.143-0.113-0.27-0.113-0.383c0-0.105,0.027-0.191,0.08-0.258c0.053-0.068,0.119-0.127,0.201-0.18l0.889-0.551
			c0.562,0.869,1.039,1.727,1.432,2.572c0.395,0.848,0.713,1.695,0.955,2.545c0.244,0.852,0.422,1.711,0.535,2.58
			c0.111,0.869,0.168,1.756,0.168,2.662c0,0.914-0.057,1.805-0.168,2.67c-0.113,0.865-0.291,1.725-0.535,2.578
			c-0.242,0.854-0.561,1.705-0.955,2.551c-0.393,0.848-0.869,1.701-1.432,2.562l-0.889-0.539c-0.082-0.053-0.148-0.113-0.201-0.18
			c-0.053-0.068-0.08-0.154-0.08-0.26c0-0.059,0.008-0.119,0.023-0.18c0.016-0.059,0.045-0.131,0.09-0.213
			c0.779-1.371,1.375-2.811,1.787-4.32S439.58,152.262,439.58,150.658z"/>
		<path fill="#FFFFFF" d="M457.514,144.141c-0.066,0.113-0.139,0.197-0.213,0.254s-0.172,0.084-0.293,0.084
			c-0.127,0-0.275-0.064-0.443-0.191s-0.381-0.268-0.641-0.422c-0.258-0.152-0.568-0.293-0.932-0.42s-0.805-0.191-1.32-0.191
			c-0.488,0-0.918,0.066-1.293,0.197s-0.688,0.309-0.938,0.533c-0.252,0.225-0.441,0.488-0.568,0.791
			c-0.127,0.305-0.191,0.633-0.191,0.984c0,0.449,0.111,0.822,0.332,1.117c0.221,0.297,0.514,0.549,0.877,0.76
			c0.363,0.209,0.775,0.391,1.236,0.545c0.461,0.152,0.932,0.312,1.416,0.477c0.482,0.166,0.955,0.352,1.414,0.557
			c0.461,0.207,0.873,0.467,1.236,0.781s0.656,0.701,0.877,1.158s0.332,1.018,0.332,1.686c0,0.703-0.121,1.365-0.359,1.982
			c-0.24,0.617-0.59,1.156-1.051,1.613s-1.027,0.816-1.697,1.078s-1.434,0.393-2.287,0.393c-1.041,0-1.99-0.189-2.848-0.566
			c-0.859-0.379-1.59-0.891-2.197-1.535l0.629-1.033c0.061-0.082,0.133-0.152,0.219-0.207c0.086-0.057,0.182-0.084,0.287-0.084
			c0.158,0,0.338,0.084,0.539,0.252c0.203,0.168,0.455,0.354,0.76,0.557c0.303,0.201,0.67,0.387,1.1,0.557
			c0.432,0.168,0.957,0.252,1.58,0.252c0.516,0,0.977-0.07,1.381-0.213c0.406-0.143,0.748-0.344,1.029-0.602
			s0.496-0.568,0.646-0.928c0.148-0.359,0.225-0.76,0.225-1.201c0-0.488-0.111-0.887-0.332-1.197s-0.512-0.572-0.871-0.781
			s-0.77-0.387-1.23-0.533s-0.932-0.297-1.416-0.449c-0.482-0.154-0.955-0.332-1.416-0.535c-0.461-0.201-0.871-0.463-1.23-0.785
			s-0.65-0.727-0.871-1.209s-0.33-1.08-0.33-1.793c0-0.568,0.109-1.119,0.33-1.65c0.221-0.533,0.541-1.004,0.961-1.416
			s0.939-0.742,1.557-0.99c0.619-0.246,1.328-0.369,2.129-0.369c0.9,0,1.721,0.143,2.461,0.426c0.742,0.285,1.391,0.697,1.945,1.236
			L457.514,144.141z"/>
		<path fill="#FFFFFF" d="M475.135,149.682c0,1.205-0.191,2.303-0.574,3.293c-0.383,0.988-0.922,1.834-1.617,2.539
			c-0.697,0.703-1.533,1.248-2.506,1.635c-0.975,0.387-2.053,0.578-3.236,0.578h-6.023v-16.102h6.023
			c1.184,0,2.262,0.191,3.236,0.578c0.973,0.387,1.809,0.932,2.506,1.641c0.695,0.707,1.234,1.557,1.617,2.545
			S475.135,148.475,475.135,149.682z M472.898,149.682c0-0.988-0.135-1.873-0.406-2.652c-0.27-0.779-0.65-1.438-1.145-1.979
			c-0.496-0.539-1.094-0.951-1.799-1.234c-0.703-0.285-1.486-0.428-2.348-0.428h-3.832v12.574h3.832
			c0.861,0,1.645-0.143,2.348-0.428c0.705-0.283,1.303-0.693,1.799-1.23c0.494-0.535,0.875-1.191,1.145-1.971
			C472.764,151.555,472.898,150.67,472.898,149.682z"/>
		<path fill="#FFFFFF" d="M479.656,141.697c0.094,0.049,0.201,0.148,0.32,0.299l9.326,12.135c-0.021-0.195-0.037-0.383-0.045-0.566
			c-0.006-0.184-0.01-0.361-0.01-0.535v-11.404h1.91v16.102h-1.102c-0.172,0-0.316-0.029-0.434-0.09
			c-0.115-0.059-0.23-0.16-0.342-0.303l-9.316-12.125c0.016,0.188,0.027,0.371,0.035,0.551c0.006,0.18,0.01,0.344,0.01,0.494v11.473
			h-1.91v-16.102h1.125C479.418,141.625,479.562,141.648,479.656,141.697z"/>
		<path fill="#FFFFFF" d="M499.428,157.727v-16.102h5.135c0.988,0,1.842,0.098,2.557,0.291c0.715,0.195,1.303,0.473,1.764,0.832
			s0.803,0.799,1.023,1.32s0.332,1.107,0.332,1.758c0,0.398-0.062,0.779-0.186,1.146c-0.125,0.367-0.312,0.709-0.562,1.023
			c-0.252,0.314-0.566,0.596-0.943,0.842c-0.379,0.248-0.822,0.449-1.332,0.607c1.176,0.232,2.064,0.656,2.662,1.27
			c0.6,0.615,0.9,1.424,0.9,2.428c0,0.682-0.127,1.303-0.377,1.865c-0.252,0.562-0.617,1.045-1.102,1.449
			c-0.482,0.404-1.074,0.717-1.775,0.939c-0.701,0.221-1.5,0.33-2.398,0.33H499.428z M501.607,148.838h2.877
			c0.613,0,1.146-0.066,1.596-0.201s0.822-0.322,1.117-0.562c0.297-0.24,0.516-0.529,0.658-0.871
			c0.143-0.34,0.213-0.713,0.213-1.117c0-0.945-0.285-1.637-0.854-2.08c-0.57-0.441-1.453-0.662-2.652-0.662h-2.955V148.838z
			 M501.607,150.389v5.607h3.484c0.621,0,1.154-0.07,1.6-0.213c0.447-0.143,0.814-0.344,1.102-0.602
			c0.289-0.258,0.5-0.564,0.635-0.922c0.135-0.355,0.203-0.746,0.203-1.174c0-0.832-0.295-1.488-0.883-1.973
			c-0.588-0.482-1.477-0.725-2.668-0.725H501.607z"/>
		<path fill="#FFFFFF" d="M527.025,157.727h-2.191V150.4h-8.674v7.326h-2.191v-16.102h2.191v7.18h8.674v-7.18h2.191V157.727z"/>
		<path fill="#FFFFFF" d="M544.916,149.682c0,1.205-0.191,2.303-0.574,3.293c-0.383,0.988-0.922,1.834-1.617,2.539
			c-0.697,0.703-1.533,1.248-2.506,1.635c-0.975,0.387-2.053,0.578-3.236,0.578h-6.023v-16.102h6.023
			c1.184,0,2.262,0.191,3.236,0.578c0.973,0.387,1.809,0.932,2.506,1.641c0.695,0.707,1.234,1.557,1.617,2.545
			S544.916,148.475,544.916,149.682z M542.68,149.682c0-0.988-0.135-1.873-0.406-2.652c-0.27-0.779-0.65-1.438-1.145-1.979
			c-0.496-0.539-1.094-0.951-1.799-1.234c-0.703-0.285-1.486-0.428-2.348-0.428h-3.832v12.574h3.832
			c0.861,0,1.645-0.143,2.348-0.428c0.705-0.283,1.303-0.693,1.799-1.23c0.494-0.535,0.875-1.191,1.145-1.971
			C542.545,151.555,542.68,150.67,542.68,149.682z"/>
	</g>
</g>
</svg>
